<?xml version="1.0" encoding="UTF-8"?>
<svg width="220px" height="40px" viewBox="0 0 220 40" version="1.1" xmlns="http://www.w3.org/2000/svg" xmlns:xlink="http://www.w3.org/1999/xlink">
    <title>assets/logos/nsigma--horizontal@hd</title>
    <defs>
        <radialGradient cx="109.593311%" cy="8.54734622%" fx="109.593311%" fy="8.54734622%" r="149.910392%" gradientTransform="translate(1.095933,0.085473),scale(1.000000,0.520667),translate(-1.095933,-0.085473)" id="radialGradient-1">
            <stop stop-color="#049839" offset="0%"></stop>
            <stop stop-color="#039739" offset="38.5%"></stop>
            <stop stop-color="#019239" offset="52.4%"></stop>
            <stop stop-color="#008939" offset="62.3%"></stop>
            <stop stop-color="#007E37" offset="70.3%"></stop>
            <stop stop-color="#006F35" offset="77%"></stop>
            <stop stop-color="#006633" offset="80.7%"></stop>
        </radialGradient>
        <path d="M20.2480881,2.92615125 C17.8504154,7.14864734 -1.28568795,6.26998953 0.0685340316,7.82358824 C11.0731312,20.4416906 27.696309,35.7595565 28.1346818,48.1266138 C28.5339509,59.4030653 28.6203906,66.8582814 31.0201213,67.2225026 C32.10885,67.3871223 33.020583,67.0393631 33.9014447,66.6916039 C38.1246415,65.0227714 40.3000407,60.8928739 41.7427605,57.8494666 C46.8344705,47.0977405 48.6599947,37.4489665 49.110716,34.9590931 C49.9483578,30.3435674 50.3887887,26.481177 50.6337012,23.8369725 C50.6501659,23.6517753 50.6090041,23.4645204 50.512274,23.3040162 L46.822122,17.1287185 C45.2039275,14.4271612 43.4623169,11.801446 41.6028105,9.25989539 C38.9458187,5.62591483 34.2616101,-0.779850437 32.3187749,0.0782299091 C31.4502618,0.46302853 31.9442029,1.94049061 30.2524545,6.12183177 C29.9231604,6.93875718 29.6082729,7.58488963 28.9970207,8.84423057 C27.3196789,12.2971294 20.5115234,2.46315826 20.2480881,2.92615125 Z" id="path-2"></path>
        <linearGradient x1="38.3573495%" y1="49.6689972%" x2="64.4042881%" y2="39.4066723%" id="linearGradient-4">
            <stop stop-color="#006633" offset="58.6%"></stop>
            <stop stop-color="#3AAA35" offset="100%"></stop>
        </linearGradient>
        <radialGradient cx="50.0031144%" cy="49.9980003%" fx="50.0031144%" fy="49.9980003%" r="56.6961705%" gradientTransform="translate(0.500031,0.499980),scale(1.000000,0.841349),translate(-0.500031,-0.499980)" id="radialGradient-5">
            <stop stop-color="#049839" offset="0%"></stop>
            <stop stop-color="#019039" offset="14.6%"></stop>
            <stop stop-color="#007B37" offset="40.7%"></stop>
            <stop stop-color="#006633" offset="63.6%"></stop>
        </radialGradient>
        <path d="M1.804237,1.47952323 L14.1280687,13.9350636 C14.4620824,14.2729347 14.4629988,14.8163118 14.1301268,15.1553074 L0.250380465,29.3084887 C-0.288838624,29.857907 0.100140032,30.7859508 0.871923078,30.7859508 L10.7630946,30.7859508 C11.0038909,30.7859508 11.2343968,30.6851212 11.3990438,30.5102127 L25.6677688,15.2355595 C25.9867409,14.8939637 25.9785596,14.3613608 25.649246,14.0297199 L11.9279725,0.255163984 C11.7653835,0.090544253 11.54311,0 11.3126041,0 L2.42372152,0 C1.64988039,-0.00205434551 1.26090173,0.930104879 1.804237,1.47952323 Z" id="path-6"></path>
        <radialGradient cx="66.3551833%" cy="31.8199078%" fx="66.3551833%" fy="31.8199078%" r="122.274156%" gradientTransform="translate(0.663552,0.318199),scale(0.602136,1.000000),rotate(-151.234884),translate(-0.663552,-0.318199)" id="radialGradient-8">
            <stop stop-color="#049839" offset="0%"></stop>
            <stop stop-color="#039639" offset="33.2%"></stop>
            <stop stop-color="#019139" offset="48.4%"></stop>
            <stop stop-color="#008839" offset="59.9%"></stop>
            <stop stop-color="#007C37" offset="69.5%"></stop>
            <stop stop-color="#006C34" offset="77.9%"></stop>
            <stop stop-color="#006633" offset="81%"></stop>
        </radialGradient>
        <linearGradient x1="33.5650252%" y1="55.2682879%" x2="75.5751504%" y2="43.6890854%" id="linearGradient-9">
            <stop stop-color="#C58A35" offset="0%"></stop>
            <stop stop-color="#C99138" offset="19.6%"></stop>
            <stop stop-color="#D6A641" offset="51%"></stop>
            <stop stop-color="#ECC852" offset="90%"></stop>
            <stop stop-color="#F2D258" offset="100%"></stop>
        </linearGradient>
    </defs>
    <g id="ðŸŽ-Assets" stroke="none" stroke-width="1" fill="none" fill-rule="evenodd">
        <g id="Group" transform="translate(-9.000000, -18.000000)">
            <g id="Calque_1">
                <path d="M9.57278499,35.1319438 L9.63452764,56.8987877 C9.63658572,57.5881328 10.4701114,57.9338342 10.9578783,57.4461483 L29.774978,38.6321708 C29.9202624,38.4870502 30.0018941,38.2901406 30.0018941,38.0848102 C30.0018941,37.8794799 29.9202624,37.6825702 29.774978,37.5374496 L10.8961357,18.6617398 C10.4083688,18.1740538 9.52750705,18.1534763 9.57278499,19.2111581 C9.57278499,19.2111581 9.45753206,29.0430715 9.57278499,32.3066577 C10.2910577,34.3500001 14.3454914,36.9304144 14.102637,37.1341313 C13.7877495,37.3954651 10.1264107,35.5640706 9.57278499,35.1319438 Z" id="Path" fill="url(#radialGradient-1)" fill-rule="nonzero"></path>
                <g id="Clipped">
                    <mask id="mask-3" fill="white">
                        <use xlink:href="#path-2"></use>
                    </mask>
                    <g id="SVGID_2_"></g>
                    <path d="M10.8055798,57.5984215 L29.8387788,38.5683807 C30.1063302,38.3008736 30.1063302,37.8666891 29.8387788,37.599182 L10.741779,18.5074088 C10.6059452,18.3715975 10.437182,18.3078073 10.272535,18.3057038 C9.91648571,18.3016341 9.57278499,18.5753144 9.57278499,18.993037 L9.5892497,28.5615588 L9.60365631,37.2452496 L9.63658572,57.1148511 C9.63658572,57.7260018 10.3733813,58.0305483 10.8055798,57.5984215 Z" id="Path" fill="url(#linearGradient-4)" fill-rule="nonzero" mask="url(#mask-3)"></path>
                </g>
                <path d="M27.7065995,25.0284078 L40.0304312,37.4839482 C40.3644448,37.8218193 40.3653613,38.3651964 40.0324892,38.704192 L26.1527429,52.8573733 C25.6135238,53.4067917 26.0025025,54.3348354 26.7742855,54.3348354 L36.6654571,54.3348354 C36.9062534,54.3348354 37.1367592,54.2340058 37.3014063,54.0590973 L51.5701313,38.7844441 C51.8891033,38.4428483 51.8809221,37.9102454 51.5516085,37.5786046 L37.8303349,23.8040486 C37.667746,23.6394289 37.4454725,23.5488846 37.2149666,23.5488846 L28.326084,23.5488846 C27.5522429,23.5468303 27.1632642,24.4789895 27.7065995,25.0284078 Z" id="Path" fill="url(#radialGradient-5)" fill-rule="nonzero"></path>
                <g id="Clipped" transform="translate(25.902362, 23.548885)">
                    <mask id="mask-7" fill="white">
                        <use xlink:href="#path-6"></use>
                    </mask>
                    <g id="SVGID_6_"></g>
                    <path d="M0.0672106215,30.8806071 C0.0672106215,30.8806071 6.20237132,29.9896028 15.745726,20.9993078 C22.5971013,14.5441566 24.3156049,15.085344 30.8418024,12.9473452 C32.9534008,12.2559423 27.1619408,23.7813812 23.4121042,30.4896353 C22.0043719,33.0062594 0.0672106215,30.8806071 0.0672106215,30.8806071 Z" id="Path" fill="url(#radialGradient-8)" fill-rule="nonzero" mask="url(#mask-7)"></path>
                </g>
            </g>
            <g id="Calque_7" transform="translate(61.710331, 23.546830)" fill="url(#linearGradient-9)" fill-rule="nonzero">
                <path d="M26.2344493,30.6377896 L21.8795349,30.6377896 L5.31809971,8.81127108 L5.31809971,30.6357319 L0,30.6357319 L0,0.355990168 L4.81181004,0.355990168 L21.0686481,21.7750749 L21.0686481,0.355990168 L26.2344493,0.355990168 L26.2344493,30.6377896 Z M32.3099255,30.6377896 L32.3099255,25.8761639 L43.2486639,25.8761639 C46.4387005,25.8761639 48.4144651,24.8637526 48.4144651,21.521972 C48.4144651,18.1801915 47.198135,17.1677802 43.9072521,17.1677802 L41.6268904,17.1677802 C35.8539532,17.1677802 31.7007314,15.0400701 31.7007314,8.91415842 C31.7007314,2.63597344 35.8539532,0.355990168 42.0323338,0.355990168 L53.0225244,0.355990168 L53.0225244,5.11555813 L42.2340264,5.11555813 C38.6385465,5.11555813 37.2699179,5.77403705 37.2699179,8.7104415 C37.2699179,11.6468459 38.7393928,12.3053249 42.2340264,12.3053249 L44.3620895,12.3053249 C50.4396238,12.3053249 53.9857096,15.2417293 53.9857096,21.521972 C53.9857096,27.9030443 49.3261981,30.6377896 43.4524146,30.6377896 L32.3099255,30.6377896 L32.3099255,30.6377896 Z M59.1515108,0.355990168 L64.621909,0.355990168 L64.621909,30.6377896 L59.1515108,30.6377896 L59.1515108,0.355990168 Z M69.8371043,15.3940026 C69.8371043,6.27818498 77.0280643,0 85.9416439,0 C90.8049062,0 94.9066758,1.87254944 97.8435675,5.16494405 L94.046395,8.50878233 C92.0706304,6.28024272 89.2860371,4.86245529 85.9416439,4.86245529 C79.8147156,4.86245529 75.4062908,9.21664717 75.4062908,15.3940026 M75.4062908,15.3940026 C75.4062908,21.571358 79.8126575,25.9255498 85.9416439,25.9255498 C89.283979,25.9255498 92.0706304,24.5077624 94.046395,22.2792228 L97.8456256,25.6210033 C94.9087339,28.9133979 90.8049062,30.7859474 85.943702,30.7859474 C77.0301223,30.7859474 69.8391624,24.5077624 69.8391624,15.3919448 M133.954782,0.355990168 L133.954782,30.6377896 L128.484384,30.6377896 L128.484384,9.52119367 L121.342818,17.9270887 L118.051935,17.9270887 L110.858917,9.52119367 L110.858917,30.6377896 L105.489365,30.6377896 L105.489365,0.355990168 L108.983999,0.355990168 L119.721044,12.5604854 L130.305792,0.355990168 L133.954782,0.355990168 L133.954782,0.355990168 Z M158.567458,24.6106497 L145.957552,24.6106497 L143.67719,30.6357319 L137.852801,30.6357319 L149.806177,0.253102836 L154.770285,0.253102836 L166.672209,30.6357319 L160.796367,30.6357319 L158.567458,24.6106497 L158.567458,24.6106497 Z M157.198829,19.9519114 L152.234721,6.93872165 L147.221218,19.9519114 L157.198829,19.9519114 Z M100.175381,13.0646334 L84.4474719,13.0646334 L84.4227749,17.7233718 L100.173323,17.7233718 L100.173323,13.0646334 L100.175381,13.0646334 Z" id="Shape"></path>
            </g>
        </g>
    </g>
</svg>